<?xml version="1.0" encoding="UTF-8" standalone="no"?>
<!DOCTYPE svg PUBLIC "-//W3C//DTD SVG 1.1//EN"
 "http://www.w3.org/Graphics/SVG/1.1/DTD/svg11.dtd">
<!-- Generated by graphviz version 2.43.0 (0)
 -->
<!-- Title: zk Pages: 1 -->
<svg width="9499pt" height="5620pt"
 viewBox="0.00 0.00 1367.79 809.29" xmlns="http://www.w3.org/2000/svg" xmlns:xlink="http://www.w3.org/1999/xlink">
<g id="graph0" class="graph" transform="scale(0.14 0.14) rotate(0) translate(4 805.29)">
<title>zk</title>
<polygon fill="white" stroke="transparent" points="-4,4 -4,-805.29 1363.79,-805.29 1363.79,4 -4,4"/>
<!-- lookupQuotientContribution -->
<g id="node1" class="node">
<title>lookupQuotientContribution</title>
<ellipse fill="blue" stroke="black" cx="768.74" cy="-675.29" rx="141.07" ry="18"/>
<text text-anchor="middle" x="768.74" y="-671.59" font-family="Times,serif" font-size="14.00">lookupQuotientContribution</text>
</g>
<!-- modexp -->
<g id="node6" class="node">
<title>modexp</title>
<ellipse fill="yellow" stroke="black" cx="1231.1" cy="-675.29" rx="47.39" ry="18"/>
<text text-anchor="middle" x="1231.1" y="-671.59" font-family="Times,serif" font-size="14.00">modexp</text>
</g>
<!-- lookupQuotientContribution&#45;&gt;modexp -->
<g id="edge8" class="edge">
<title>lookupQuotientContribution&#45;&gt;modexp</title>
<path fill="none" stroke="black" d="M910.05,-675.29C998.54,-675.29 1108.06,-675.29 1173.33,-675.29"/>
<polygon fill="black" stroke="black" points="1173.42,-678.79 1183.42,-675.29 1173.42,-671.79 1173.42,-678.79"/>
</g>
<!-- addAssignLookupLinearisationContributionWithV -->
<g id="node2" class="node">
<title>addAssignLookupLinearisationContributionWithV</title>
<ellipse fill="blue" stroke="black" cx="768.74" cy="-367.29" rx="240.46" ry="18"/>
<text text-anchor="middle" x="768.74" y="-363.59" font-family="Times,serif" font-size="14.00">addAssignLookupLinearisationContributionWithV</text>
</g>
<!-- updateAggregationChallenge1 -->
<g id="node3" class="node">
<title>updateAggregationChallenge1</title>
<ellipse fill="blue" stroke="black" cx="768.74" cy="-21.29" rx="152.17" ry="18"/>
<text text-anchor="middle" x="768.74" y="-17.59" font-family="Times,serif" font-size="14.00">updateAggregationChallenge1</text>
</g>
<!-- pointMulAndAddIntoDest -->
<g id="node13" class="node">
<title>pointMulAndAddIntoDest</title>
<ellipse fill="yellow" stroke="black" cx="1231.1" cy="-194.29" rx="128.88" ry="18"/>
<text text-anchor="middle" x="1231.1" y="-190.59" font-family="Times,serif" font-size="14.00">pointMulAndAddIntoDest</text>
</g>
<!-- updateAggregationChallenge1&#45;&gt;pointMulAndAddIntoDest -->
<g id="edge24" class="edge">
<title>updateAggregationChallenge1&#45;&gt;pointMulAndAddIntoDest</title>
<path fill="none" stroke="black" d="M915.01,-16.31C964.71,-19.28 1019.56,-27.95 1066.41,-48.29 1127.76,-74.92 1181.97,-133.72 1209.96,-168.02"/>
<polygon fill="black" stroke="black" points="1207.52,-170.56 1216.51,-176.18 1212.98,-166.19 1207.52,-170.56"/>
</g>
<!-- updateAggregationChallenge2 -->
<g id="node4" class="node">
<title>updateAggregationChallenge2</title>
<ellipse fill="blue" stroke="black" cx="768.74" cy="-75.29" rx="152.17" ry="18"/>
<text text-anchor="middle" x="768.74" y="-71.59" font-family="Times,serif" font-size="14.00">updateAggregationChallenge2</text>
</g>
<!-- updateAggregationChallenge2&#45;&gt;pointMulAndAddIntoDest -->
<g id="edge25" class="edge">
<title>updateAggregationChallenge2&#45;&gt;pointMulAndAddIntoDest</title>
<path fill="none" stroke="black" d="M920.4,-76.73C967.94,-80.42 1020.11,-87.89 1066.41,-102.29 1115.35,-117.5 1165.92,-148.73 1197.65,-170.56"/>
<polygon fill="black" stroke="black" points="1195.89,-173.59 1206.09,-176.45 1199.89,-167.85 1195.89,-173.59"/>
</g>
<!-- pointSubAssign -->
<g id="node5" class="node">
<title>pointSubAssign</title>
<ellipse fill="blue" stroke="black" cx="1231.1" cy="-475.29" rx="83.39" ry="18"/>
<text text-anchor="middle" x="1231.1" y="-471.59" font-family="Times,serif" font-size="14.00">pointSubAssign</text>
</g>
<!-- permutationQuotientContribution -->
<g id="node7" class="node">
<title>permutationQuotientContribution</title>
<ellipse fill="yellow" stroke="black" cx="768.74" cy="-783.29" rx="167.87" ry="18"/>
<text text-anchor="middle" x="768.74" y="-779.59" font-family="Times,serif" font-size="14.00">permutationQuotientContribution</text>
</g>
<!-- pointNegate -->
<g id="node8" class="node">
<title>pointNegate</title>
<ellipse fill="yellow" stroke="black" cx="1231.1" cy="-583.29" rx="68.49" ry="18"/>
<text text-anchor="middle" x="1231.1" y="-579.59" font-family="Times,serif" font-size="14.00">pointNegate</text>
</g>
<!-- pointAddIntoDest -->
<g id="node9" class="node">
<title>pointAddIntoDest</title>
<ellipse fill="yellow" stroke="black" cx="768.74" cy="-129.29" rx="92.88" ry="18"/>
<text text-anchor="middle" x="768.74" y="-125.59" font-family="Times,serif" font-size="14.00">pointAddIntoDest</text>
</g>
<!-- pointMulIntoDest -->
<g id="node10" class="node">
<title>pointMulIntoDest</title>
<ellipse fill="yellow" stroke="black" cx="1231.1" cy="-325.29" rx="92.88" ry="18"/>
<text text-anchor="middle" x="1231.1" y="-321.59" font-family="Times,serif" font-size="14.00">pointMulIntoDest</text>
</g>
<!-- pointAddAssign -->
<g id="node11" class="node">
<title>pointAddAssign</title>
<ellipse fill="yellow" stroke="black" cx="1231.1" cy="-271.29" rx="83.39" ry="18"/>
<text text-anchor="middle" x="1231.1" y="-267.59" font-family="Times,serif" font-size="14.00">pointAddAssign</text>
</g>
<!-- evaluateLagrangePolyOutOfDomain -->
<g id="node12" class="node">
<title>evaluateLagrangePolyOutOfDomain</title>
<ellipse fill="yellow" stroke="black" cx="768.74" cy="-729.29" rx="176.57" ry="18"/>
<text text-anchor="middle" x="768.74" y="-725.59" font-family="Times,serif" font-size="14.00">evaluateLagrangePolyOutOfDomain</text>
</g>
<!-- evaluateLagrangePolyOutOfDomain&#45;&gt;modexp -->
<g id="edge7" class="edge">
<title>evaluateLagrangePolyOutOfDomain&#45;&gt;modexp</title>
<path fill="none" stroke="black" d="M911.07,-718.54C960.31,-714.23 1015.88,-708.74 1066.41,-702.29 1103.92,-697.49 1146.01,-690.51 1178.12,-684.85"/>
<polygon fill="black" stroke="black" points="1178.94,-688.26 1188.17,-683.07 1177.71,-681.37 1178.94,-688.26"/>
</g>
<!-- mainGateLinearisationContributionWithV -->
<g id="node14" class="node">
<title>mainGateLinearisationContributionWithV</title>
<ellipse fill="red" stroke="black" cx="768.74" cy="-275.29" rx="204.16" ry="18"/>
<text text-anchor="middle" x="768.74" y="-271.59" font-family="Times,serif" font-size="14.00">mainGateLinearisationContributionWithV</text>
</g>
<!-- mainGateLinearisationContributionWithV&#45;&gt;pointMulIntoDest -->
<g id="edge14" class="edge">
<title>mainGateLinearisationContributionWithV&#45;&gt;pointMulIntoDest</title>
<path fill="none" stroke="black" d="M898.98,-289.17C951.01,-294.77 1011.56,-301.31 1066.41,-307.29 1090.16,-309.87 1115.85,-312.69 1139.67,-315.31"/>
<polygon fill="black" stroke="black" points="1139.44,-318.8 1149.76,-316.42 1140.2,-311.85 1139.44,-318.8"/>
</g>
<!-- mainGateLinearisationContributionWithV&#45;&gt;pointAddAssign -->
<g id="edge16" class="edge">
<title>mainGateLinearisationContributionWithV&#45;&gt;pointAddAssign</title>
<path fill="none" stroke="black" d="M971.99,-273.53C1029.8,-273.03 1089.98,-272.5 1137.68,-272.09"/>
<polygon fill="black" stroke="black" points="1138,-275.59 1147.97,-272 1137.94,-268.59 1138,-275.59"/>
</g>
<!-- mainGateLinearisationContributionWithV&#45;&gt;pointMulAndAddIntoDest -->
<g id="edge15" class="edge">
<title>mainGateLinearisationContributionWithV&#45;&gt;pointMulAndAddIntoDest</title>
<path fill="none" stroke="black" d="M944.46,-266.06C984.77,-262.09 1027.29,-256.41 1066.41,-248.29 1104.52,-240.38 1146.15,-226.57 1177.89,-214.89"/>
<polygon fill="black" stroke="black" points="1179.26,-218.12 1187.41,-211.35 1176.82,-211.56 1179.26,-218.12"/>
</g>
<!-- verifyQuotientEvaluation -->
<g id="node15" class="node">
<title>verifyQuotientEvaluation</title>
<ellipse fill="red" stroke="black" cx="273.23" cy="-702.29" rx="128.08" ry="18"/>
<text text-anchor="middle" x="273.23" y="-698.59" font-family="Times,serif" font-size="14.00">verifyQuotientEvaluation</text>
</g>
<!-- verifyQuotientEvaluation&#45;&gt;lookupQuotientContribution -->
<g id="edge6" class="edge">
<title>verifyQuotientEvaluation&#45;&gt;lookupQuotientContribution</title>
<path fill="none" stroke="black" d="M392.75,-695.8C463.57,-691.93 553.9,-686.99 628.16,-682.92"/>
<polygon fill="black" stroke="black" points="628.73,-686.4 638.53,-682.36 628.35,-679.41 628.73,-686.4"/>
</g>
<!-- verifyQuotientEvaluation&#45;&gt;permutationQuotientContribution -->
<g id="edge5" class="edge">
<title>verifyQuotientEvaluation&#45;&gt;permutationQuotientContribution</title>
<path fill="none" stroke="black" d="M324.64,-718.77C364.07,-731.02 420.51,-747.13 471.06,-756.29 515.66,-764.37 564.48,-770.08 609.41,-774.1"/>
<polygon fill="black" stroke="black" points="609.27,-777.6 619.54,-774.98 609.88,-770.62 609.27,-777.6"/>
</g>
<!-- verifyQuotientEvaluation&#45;&gt;evaluateLagrangePolyOutOfDomain -->
<g id="edge4" class="edge">
<title>verifyQuotientEvaluation&#45;&gt;evaluateLagrangePolyOutOfDomain</title>
<path fill="none" stroke="black" d="M392.75,-708.77C455.54,-712.21 533.67,-716.48 602.34,-720.24"/>
<polygon fill="black" stroke="black" points="602.22,-723.74 612.4,-720.79 602.6,-716.75 602.22,-723.74"/>
</g>
<!-- addAssignPermutationLinearisationContributionWithV -->
<g id="node16" class="node">
<title>addAssignPermutationLinearisationContributionWithV</title>
<ellipse fill="red" stroke="black" cx="768.74" cy="-421.29" rx="264.55" ry="18"/>
<text text-anchor="middle" x="768.74" y="-417.59" font-family="Times,serif" font-size="14.00">addAssignPermutationLinearisationContributionWithV</text>
</g>
<!-- addAssignPermutationLinearisationContributionWithV&#45;&gt;pointSubAssign -->
<g id="edge19" class="edge">
<title>addAssignPermutationLinearisationContributionWithV&#45;&gt;pointSubAssign</title>
<path fill="none" stroke="black" d="M942.53,-434.88C983.22,-438.67 1026.4,-443.17 1066.41,-448.29 1096.06,-452.08 1128.56,-457.23 1156.73,-462.02"/>
<polygon fill="black" stroke="black" points="1156.46,-465.52 1166.91,-463.76 1157.64,-458.62 1156.46,-465.52"/>
</g>
<!-- addAssignPermutationLinearisationContributionWithV&#45;&gt;pointMulIntoDest -->
<g id="edge18" class="edge">
<title>addAssignPermutationLinearisationContributionWithV&#45;&gt;pointMulIntoDest</title>
<path fill="none" stroke="black" d="M979.38,-410.35C1008.85,-406.45 1038.56,-401.24 1066.41,-394.29 1109.85,-383.43 1156.66,-362.7 1189.05,-346.78"/>
<polygon fill="black" stroke="black" points="1190.81,-349.82 1198.2,-342.23 1187.69,-343.55 1190.81,-349.82"/>
</g>
<!-- addAssignRescueCustomGateLinearisationContributionWithV -->
<g id="node17" class="node">
<title>addAssignRescueCustomGateLinearisationContributionWithV</title>
<ellipse fill="red" stroke="black" cx="768.74" cy="-221.29" rx="297.85" ry="18"/>
<text text-anchor="middle" x="768.74" y="-217.59" font-family="Times,serif" font-size="14.00">addAssignRescueCustomGateLinearisationContributionWithV</text>
</g>
<!-- addAssignRescueCustomGateLinearisationContributionWithV&#45;&gt;pointMulAndAddIntoDest -->
<g id="edge17" class="edge">
<title>addAssignRescueCustomGateLinearisationContributionWithV&#45;&gt;pointMulAndAddIntoDest</title>
<path fill="none" stroke="black" d="M983.07,-208.77C1023.6,-206.4 1064.82,-203.98 1101.69,-201.82"/>
<polygon fill="black" stroke="black" points="1102.19,-205.29 1111.97,-201.22 1101.78,-198.31 1102.19,-205.29"/>
</g>
<!-- finalPairing -->
<g id="node18" class="node">
<title>finalPairing</title>
<ellipse fill="red" stroke="black" cx="768.74" cy="-583.29" rx="63.89" ry="18"/>
<text text-anchor="middle" x="768.74" y="-579.59" font-family="Times,serif" font-size="14.00">finalPairing</text>
</g>
<!-- finalPairing&#45;&gt;pointSubAssign -->
<g id="edge26" class="edge">
<title>finalPairing&#45;&gt;pointSubAssign</title>
<path fill="none" stroke="black" d="M832.6,-584.2C893.49,-583.55 987.89,-578.45 1066.41,-556.29 1113.27,-543.06 1162.81,-516.55 1194.96,-497.46"/>
<polygon fill="black" stroke="black" points="1196.78,-500.45 1203.54,-492.29 1193.17,-494.45 1196.78,-500.45"/>
</g>
<!-- finalPairing&#45;&gt;pointNegate -->
<g id="edge28" class="edge">
<title>finalPairing&#45;&gt;pointNegate</title>
<path fill="none" stroke="black" d="M832.78,-583.29C916.01,-583.29 1062.49,-583.29 1152.45,-583.29"/>
<polygon fill="black" stroke="black" points="1152.59,-586.79 1162.59,-583.29 1152.59,-579.79 1152.59,-586.79"/>
</g>
<!-- finalPairing&#45;&gt;pointMulAndAddIntoDest -->
<g id="edge27" class="edge">
<title>finalPairing&#45;&gt;pointMulAndAddIntoDest</title>
<path fill="none" stroke="black" d="M816.96,-595.15C882.51,-608.49 1000.44,-620.68 1066.41,-556.29 1166.3,-458.78 1017.25,-354.88 1102.41,-244.29 1113.38,-230.04 1128.99,-219.85 1145.55,-212.56"/>
<polygon fill="black" stroke="black" points="1146.87,-215.8 1154.82,-208.8 1144.24,-209.32 1146.87,-215.8"/>
</g>
<!-- getTranscriptChallenge -->
<g id="node19" class="node">
<title>getTranscriptChallenge</title>
<ellipse fill="red" stroke="black" cx="768.74" cy="-529.29" rx="120.48" ry="18"/>
<text text-anchor="middle" x="768.74" y="-525.59" font-family="Times,serif" font-size="14.00">getTranscriptChallenge</text>
</g>
<!-- initializeTranscript -->
<g id="node20" class="node">
<title>initializeTranscript</title>
<ellipse fill="red" stroke="black" cx="273.23" cy="-502.29" rx="98.58" ry="18"/>
<text text-anchor="middle" x="273.23" y="-498.59" font-family="Times,serif" font-size="14.00">initializeTranscript</text>
</g>
<!-- initializeTranscript&#45;&gt;modexp -->
<g id="edge1" class="edge">
<title>initializeTranscript&#45;&gt;modexp</title>
<path fill="none" stroke="black" d="M297.86,-519.8C333.36,-545.02 403.5,-590.65 471.06,-610.29 725.67,-684.27 802.98,-618.23 1066.41,-648.29 1104.11,-652.59 1146.36,-659.61 1178.49,-665.42"/>
<polygon fill="black" stroke="black" points="1178.08,-668.9 1188.55,-667.26 1179.34,-662.02 1178.08,-668.9"/>
</g>
<!-- initializeTranscript&#45;&gt;getTranscriptChallenge -->
<g id="edge3" class="edge">
<title>initializeTranscript&#45;&gt;getTranscriptChallenge</title>
<path fill="none" stroke="black" d="M368.22,-507.43C446.9,-511.73 559.76,-517.91 645.46,-522.6"/>
<polygon fill="black" stroke="black" points="645.34,-526.1 655.51,-523.15 645.72,-519.11 645.34,-526.1"/>
</g>
<!-- updateTranscript -->
<g id="node25" class="node">
<title>updateTranscript</title>
<ellipse fill="red" stroke="black" cx="768.74" cy="-475.29" rx="90.98" ry="18"/>
<text text-anchor="middle" x="768.74" y="-471.59" font-family="Times,serif" font-size="14.00">updateTranscript</text>
</g>
<!-- initializeTranscript&#45;&gt;updateTranscript -->
<g id="edge2" class="edge">
<title>initializeTranscript&#45;&gt;updateTranscript</title>
<path fill="none" stroke="black" d="M368.22,-497.14C454.84,-492.41 582.87,-485.4 670.51,-480.61"/>
<polygon fill="black" stroke="black" points="670.93,-484.09 680.72,-480.05 670.54,-477.1 670.93,-484.09"/>
</g>
<!-- loadProof -->
<g id="node21" class="node">
<title>loadProof</title>
<ellipse fill="red" stroke="black" cx="273.23" cy="-213.29" rx="55.49" ry="18"/>
<text text-anchor="middle" x="273.23" y="-209.59" font-family="Times,serif" font-size="14.00">loadProof</text>
</g>
<!-- loadVerificationKey -->
<g id="node22" class="node">
<title>loadVerificationKey</title>
<ellipse fill="red" stroke="black" cx="273.23" cy="-159.29" rx="100.18" ry="18"/>
<text text-anchor="middle" x="273.23" y="-155.59" font-family="Times,serif" font-size="14.00">loadVerificationKey</text>
</g>
<!-- prepareAggregatedCommitment -->
<g id="node23" class="node">
<title>prepareAggregatedCommitment</title>
<ellipse fill="red" stroke="black" cx="273.23" cy="-267.29" rx="161.67" ry="18"/>
<text text-anchor="middle" x="273.23" y="-263.59" font-family="Times,serif" font-size="14.00">prepareAggregatedCommitment</text>
</g>
<!-- prepareAggregatedCommitment&#45;&gt;updateAggregationChallenge1 -->
<g id="edge20" class="edge">
<title>prepareAggregatedCommitment&#45;&gt;updateAggregationChallenge1</title>
<path fill="none" stroke="black" d="M410.3,-257.55C419.38,-253.09 427.79,-247.43 435.06,-240.29 497.04,-179.48 406.84,-106.71 471.06,-48.29 527.74,3.27 618.17,4.2 684.31,-4.17"/>
<polygon fill="black" stroke="black" points="683.92,-7.65 694.3,-5.53 684.86,-0.71 683.92,-7.65"/>
</g>
<!-- prepareAggregatedCommitment&#45;&gt;updateAggregationChallenge2 -->
<g id="edge23" class="edge">
<title>prepareAggregatedCommitment&#45;&gt;updateAggregationChallenge2</title>
<path fill="none" stroke="black" d="M408.99,-257.34C418.48,-252.95 427.34,-247.36 435.06,-240.29 481.83,-197.5 422.71,-143.28 471.06,-102.29 527.89,-54.11 614.69,-51.6 679.75,-58.62"/>
<polygon fill="black" stroke="black" points="679.66,-62.13 690,-59.82 680.47,-55.18 679.66,-62.13"/>
</g>
<!-- prepareAggregatedCommitment&#45;&gt;pointAddIntoDest -->
<g id="edge21" class="edge">
<title>prepareAggregatedCommitment&#45;&gt;pointAddIntoDest</title>
<path fill="none" stroke="black" d="M405.33,-256.79C415.98,-252.58 426.08,-247.18 435.06,-240.29 465.67,-216.79 439.78,-183.87 471.06,-161.29 532.56,-116.89 620.76,-112.81 685,-117.45"/>
<polygon fill="black" stroke="black" points="684.85,-120.95 695.1,-118.27 685.41,-113.97 684.85,-120.95"/>
</g>
<!-- prepareAggregatedCommitment&#45;&gt;pointMulIntoDest -->
<g id="edge22" class="edge">
<title>prepareAggregatedCommitment&#45;&gt;pointMulIntoDest</title>
<path fill="none" stroke="black" d="M367.08,-282.02C389.39,-285.8 413.11,-290.01 435.06,-294.29 451.15,-297.42 454.8,-300.25 471.06,-302.29 705.17,-331.58 982.89,-331.16 1128.84,-328.25"/>
<polygon fill="black" stroke="black" points="1129.2,-331.74 1139.12,-328.04 1129.05,-324.75 1129.2,-331.74"/>
</g>
<!-- prepareQueries -->
<g id="node24" class="node">
<title>prepareQueries</title>
<ellipse fill="red" stroke="black" cx="273.23" cy="-321.29" rx="83.39" ry="18"/>
<text text-anchor="middle" x="273.23" y="-317.59" font-family="Times,serif" font-size="14.00">prepareQueries</text>
</g>
<!-- prepareQueries&#45;&gt;addAssignLookupLinearisationContributionWithV -->
<g id="edge13" class="edge">
<title>prepareQueries&#45;&gt;addAssignLookupLinearisationContributionWithV</title>
<path fill="none" stroke="black" d="M349.99,-328.35C418.21,-334.71 520.75,-344.26 607.16,-352.32"/>
<polygon fill="black" stroke="black" points="607.06,-355.83 617.34,-353.27 607.71,-348.86 607.06,-355.83"/>
</g>
<!-- prepareQueries&#45;&gt;pointMulAndAddIntoDest -->
<g id="edge9" class="edge">
<title>prepareQueries&#45;&gt;pointMulAndAddIntoDest</title>
<path fill="none" stroke="black" d="M355.99,-323.69C383.74,-320.61 413.22,-312.53 435.06,-294.29 471.32,-264.01 432.42,-221.45 471.06,-194.29 521.26,-159.01 900.11,-175.06 1102.88,-186.43"/>
<polygon fill="black" stroke="black" points="1102.82,-189.93 1113,-187 1103.21,-182.94 1102.82,-189.93"/>
</g>
<!-- prepareQueries&#45;&gt;mainGateLinearisationContributionWithV -->
<g id="edge10" class="edge">
<title>prepareQueries&#45;&gt;mainGateLinearisationContributionWithV</title>
<path fill="none" stroke="black" d="M349.99,-314.23C421.01,-307.6 529.23,-297.52 617.72,-289.27"/>
<polygon fill="black" stroke="black" points="618.23,-292.74 627.86,-288.32 617.58,-285.77 618.23,-292.74"/>
</g>
<!-- prepareQueries&#45;&gt;addAssignPermutationLinearisationContributionWithV -->
<g id="edge12" class="edge">
<title>prepareQueries&#45;&gt;addAssignPermutationLinearisationContributionWithV</title>
<path fill="none" stroke="black" d="M309.28,-337.52C347.99,-354.67 412.59,-381.03 471.06,-394.29 497.46,-400.27 525.45,-404.94 553.3,-408.57"/>
<polygon fill="black" stroke="black" points="553.19,-412.09 563.54,-409.87 554.06,-405.14 553.19,-412.09"/>
</g>
<!-- prepareQueries&#45;&gt;addAssignRescueCustomGateLinearisationContributionWithV -->
<g id="edge11" class="edge">
<title>prepareQueries&#45;&gt;addAssignRescueCustomGateLinearisationContributionWithV</title>
<path fill="none" stroke="black" d="M355.97,-319.22C382.65,-315.6 411.46,-308.33 435.06,-294.29 457.38,-281.02 448.27,-260.7 471.06,-248.29 481.16,-242.79 491.75,-238.04 502.65,-233.95"/>
<polygon fill="black" stroke="black" points="504.06,-237.17 512.32,-230.53 501.72,-230.57 504.06,-237.17"/>
</g>
<!-- verify -->
<g id="node26" class="node">
<title>verify</title>
<ellipse fill="red" stroke="black" cx="37.7" cy="-321.29" rx="37.89" ry="18"/>
<text text-anchor="middle" x="37.7" y="-317.59" font-family="Times,serif" font-size="14.00">verify</text>
</g>
<!-- verify&#45;&gt;verifyQuotientEvaluation -->
<g id="edge32" class="edge">
<title>verify&#45;&gt;verifyQuotientEvaluation</title>
<path fill="none" stroke="black" d="M39.87,-339.59C43.52,-384.4 57.91,-501.73 111.39,-580.29 141.3,-624.22 192.22,-658.91 228.75,-679.9"/>
<polygon fill="black" stroke="black" points="227.28,-683.08 237.71,-684.94 230.71,-676.98 227.28,-683.08"/>
</g>
<!-- verify&#45;&gt;finalPairing -->
<g id="edge35" class="edge">
<title>verify&#45;&gt;finalPairing</title>
<path fill="none" stroke="black" d="M38.9,-339.45C40.44,-380.85 50.57,-482.25 111.39,-529.29 290.85,-668.08 586.42,-624.16 710.3,-597.38"/>
<polygon fill="black" stroke="black" points="711.32,-600.74 720.33,-595.17 709.82,-593.91 711.32,-600.74"/>
</g>
<!-- verify&#45;&gt;initializeTranscript -->
<g id="edge31" class="edge">
<title>verify&#45;&gt;initializeTranscript</title>
<path fill="none" stroke="black" d="M58.21,-336.41C98.83,-367.89 192.76,-440.69 241.56,-478.51"/>
<polygon fill="black" stroke="black" points="239.5,-481.35 249.55,-484.71 243.79,-475.82 239.5,-481.35"/>
</g>
<!-- verify&#45;&gt;loadProof -->
<g id="edge30" class="edge">
<title>verify&#45;&gt;loadProof</title>
<path fill="none" stroke="black" d="M49.14,-303.9C61.5,-284.97 83.91,-255.4 111.39,-240.29 140.59,-224.23 176.94,-217.23 207.69,-214.35"/>
<polygon fill="black" stroke="black" points="208.2,-217.82 217.88,-213.53 207.63,-210.84 208.2,-217.82"/>
</g>
<!-- verify&#45;&gt;loadVerificationKey -->
<g id="edge29" class="edge">
<title>verify&#45;&gt;loadVerificationKey</title>
<path fill="none" stroke="black" d="M43,-302.99C51,-273.32 71.14,-215.12 111.39,-186.29 126.78,-175.27 145.1,-168.16 163.77,-163.67"/>
<polygon fill="black" stroke="black" points="164.51,-167.09 173.55,-161.56 163.03,-160.25 164.51,-167.09"/>
</g>
<!-- verify&#45;&gt;prepareAggregatedCommitment -->
<g id="edge34" class="edge">
<title>verify&#45;&gt;prepareAggregatedCommitment</title>
<path fill="none" stroke="black" d="M66.6,-309.51C79.96,-304.24 96.3,-298.32 111.39,-294.29 127.14,-290.08 143.93,-286.4 160.51,-283.23"/>
<polygon fill="black" stroke="black" points="161.6,-286.58 170.79,-281.31 160.32,-279.7 161.6,-286.58"/>
</g>
<!-- verify&#45;&gt;prepareQueries -->
<g id="edge33" class="edge">
<title>verify&#45;&gt;prepareQueries</title>
<path fill="none" stroke="black" d="M75.44,-321.29C103.39,-321.29 143.11,-321.29 179.56,-321.29"/>
<polygon fill="black" stroke="black" points="179.74,-324.79 189.74,-321.29 179.74,-317.79 179.74,-324.79"/>
</g>
</g>
</svg>
