<?xml version="1.0" encoding="UTF-8" standalone="no"?>
<!DOCTYPE svg PUBLIC "-//W3C//DTD SVG 1.1//EN"
 "http://www.w3.org/Graphics/SVG/1.1/DTD/svg11.dtd">
<!-- Generated by graphviz version 2.43.0 (0)
 -->
<!-- Title: zk Pages: 1 -->
<svg width="2205pt" height="774pt"
 viewBox="0.00 0.00 2205.42 774.00" xmlns="http://www.w3.org/2000/svg" xmlns:xlink="http://www.w3.org/1999/xlink">
<g id="graph0" class="graph" transform="scale(1 1) rotate(0) translate(4 770)">
<title>zk</title>
<polygon fill="white" stroke="transparent" points="-4,4 -4,-770 2201.42,-770 2201.42,4 -4,4"/>
<!-- initializeTranscript -->
<g id="node1" class="node">
<title>initializeTranscript</title>
<ellipse fill="none" stroke="black" cx="239.43" cy="-521" rx="98.58" ry="18"/>
<text text-anchor="middle" x="239.43" y="-517.3" font-family="Times,serif" font-size="14.00">initializeTranscript</text>
</g>
<!-- modexp -->
<g id="node2" class="node">
<title>modexp</title>
<ellipse fill="none" stroke="black" cx="1266.2" cy="-640" rx="47.39" ry="18"/>
<text text-anchor="middle" x="1266.2" y="-636.3" font-family="Times,serif" font-size="14.00">modexp</text>
</g>
<!-- initializeTranscript&#45;&gt;modexp -->
<g id="edge1" class="edge">
<title>initializeTranscript&#45;&gt;modexp</title>
<path fill="none" stroke="black" d="M280.55,-537.4C313.1,-549.93 360.48,-566.47 403.47,-575 634.71,-620.86 697.47,-595.02 932.52,-613 1030.01,-620.46 1143.5,-629.81 1209.55,-635.33"/>
<polygon fill="black" stroke="black" points="1209.48,-638.83 1219.74,-636.18 1210.06,-631.86 1209.48,-638.83"/>
</g>
<!-- updateTranscript -->
<g id="node3" class="node">
<title>updateTranscript</title>
<ellipse fill="none" stroke="black" cx="668" cy="-494" rx="90.98" ry="18"/>
<text text-anchor="middle" x="668" y="-490.3" font-family="Times,serif" font-size="14.00">updateTranscript</text>
</g>
<!-- initializeTranscript&#45;&gt;updateTranscript -->
<g id="edge2" class="edge">
<title>initializeTranscript&#45;&gt;updateTranscript</title>
<path fill="none" stroke="black" d="M332.99,-515.14C403.29,-510.69 499.67,-504.59 570.84,-500.09"/>
<polygon fill="black" stroke="black" points="571.39,-503.56 581.15,-499.43 570.95,-496.57 571.39,-503.56"/>
</g>
<!-- getTranscriptChallenge -->
<g id="node4" class="node">
<title>getTranscriptChallenge</title>
<ellipse fill="none" stroke="black" cx="668" cy="-548" rx="120.48" ry="18"/>
<text text-anchor="middle" x="668" y="-544.3" font-family="Times,serif" font-size="14.00">getTranscriptChallenge</text>
</g>
<!-- initializeTranscript&#45;&gt;getTranscriptChallenge -->
<g id="edge3" class="edge">
<title>initializeTranscript&#45;&gt;getTranscriptChallenge</title>
<path fill="none" stroke="black" d="M332.99,-526.86C395.57,-530.82 478.82,-536.09 546.55,-540.38"/>
<polygon fill="black" stroke="black" points="546.66,-543.89 556.86,-541.03 547.1,-536.9 546.66,-543.89"/>
</g>
<!-- verifyQuotientEvaluation -->
<g id="node5" class="node">
<title>verifyQuotientEvaluation</title>
<ellipse fill="none" stroke="black" cx="239.43" cy="-667" rx="128.08" ry="18"/>
<text text-anchor="middle" x="239.43" y="-663.3" font-family="Times,serif" font-size="14.00">verifyQuotientEvaluation</text>
</g>
<!-- evaluateLagrangePolyOutOfDomain -->
<g id="node6" class="node">
<title>evaluateLagrangePolyOutOfDomain</title>
<ellipse fill="none" stroke="black" cx="668" cy="-694" rx="176.57" ry="18"/>
<text text-anchor="middle" x="668" y="-690.3" font-family="Times,serif" font-size="14.00">evaluateLagrangePolyOutOfDomain</text>
</g>
<!-- verifyQuotientEvaluation&#45;&gt;evaluateLagrangePolyOutOfDomain -->
<g id="edge4" class="edge">
<title>verifyQuotientEvaluation&#45;&gt;evaluateLagrangePolyOutOfDomain</title>
<path fill="none" stroke="black" d="M356.43,-674.34C402.82,-677.28 457.03,-680.71 507.05,-683.88"/>
<polygon fill="black" stroke="black" points="507.13,-687.39 517.33,-684.53 507.57,-680.4 507.13,-687.39"/>
</g>
<!-- permutationQuotientContribution -->
<g id="node7" class="node">
<title>permutationQuotientContribution</title>
<ellipse fill="none" stroke="black" cx="668" cy="-748" rx="167.87" ry="18"/>
<text text-anchor="middle" x="668" y="-744.3" font-family="Times,serif" font-size="14.00">permutationQuotientContribution</text>
</g>
<!-- verifyQuotientEvaluation&#45;&gt;permutationQuotientContribution -->
<g id="edge5" class="edge">
<title>verifyQuotientEvaluation&#45;&gt;permutationQuotientContribution</title>
<path fill="none" stroke="black" d="M282.98,-683.93C315.47,-696.16 361.63,-712.04 403.47,-721 438.51,-728.5 476.64,-733.94 512.73,-737.88"/>
<polygon fill="black" stroke="black" points="512.53,-741.37 522.84,-738.95 513.27,-734.41 512.53,-741.37"/>
</g>
<!-- lookupQuotientContribution -->
<g id="node8" class="node">
<title>lookupQuotientContribution</title>
<ellipse fill="none" stroke="black" cx="668" cy="-640" rx="141.07" ry="18"/>
<text text-anchor="middle" x="668" y="-636.3" font-family="Times,serif" font-size="14.00">lookupQuotientContribution</text>
</g>
<!-- verifyQuotientEvaluation&#45;&gt;lookupQuotientContribution -->
<g id="edge6" class="edge">
<title>verifyQuotientEvaluation&#45;&gt;lookupQuotientContribution</title>
<path fill="none" stroke="black" d="M356.43,-659.66C410.42,-656.24 475,-652.15 531.26,-648.59"/>
<polygon fill="black" stroke="black" points="531.53,-652.08 541.29,-647.96 531.09,-645.1 531.53,-652.08"/>
</g>
<!-- evaluateLagrangePolyOutOfDomain&#45;&gt;modexp -->
<g id="edge7" class="edge">
<title>evaluateLagrangePolyOutOfDomain&#45;&gt;modexp</title>
<path fill="none" stroke="black" d="M800.57,-682.08C928.65,-670.48 1117.12,-653.41 1209.71,-645.03"/>
<polygon fill="black" stroke="black" points="1210.07,-648.51 1219.71,-644.12 1209.44,-641.54 1210.07,-648.51"/>
</g>
<!-- lookupQuotientContribution&#45;&gt;modexp -->
<g id="edge8" class="edge">
<title>lookupQuotientContribution&#45;&gt;modexp</title>
<path fill="none" stroke="black" d="M809.16,-640C936.43,-640 1117.72,-640 1208.62,-640"/>
<polygon fill="black" stroke="black" points="1208.72,-643.5 1218.72,-640 1208.72,-636.5 1208.72,-643.5"/>
</g>
<!-- prepareQueries -->
<g id="node9" class="node">
<title>prepareQueries</title>
<ellipse fill="none" stroke="black" cx="239.43" cy="-295" rx="83.39" ry="18"/>
<text text-anchor="middle" x="239.43" y="-291.3" font-family="Times,serif" font-size="14.00">prepareQueries</text>
</g>
<!-- pointMulAndAddIntoDest -->
<g id="node10" class="node">
<title>pointMulAndAddIntoDest</title>
<ellipse fill="none" stroke="black" cx="2068.73" cy="-241" rx="128.88" ry="18"/>
<text text-anchor="middle" x="2068.73" y="-237.3" font-family="Times,serif" font-size="14.00">pointMulAndAddIntoDest</text>
</g>
<!-- prepareQueries&#45;&gt;pointMulAndAddIntoDest -->
<g id="edge9" class="edge">
<title>prepareQueries&#45;&gt;pointMulAndAddIntoDest</title>
<path fill="none" stroke="black" d="M278.22,-310.96C310.8,-323.99 359.4,-341.71 403.47,-351 924.76,-460.91 1067.23,-414.04 1599.87,-425 1735.03,-427.78 1780.71,-480.36 1904.04,-425 1976.21,-392.61 2029.56,-310.94 2053.6,-268.13"/>
<polygon fill="black" stroke="black" points="2056.8,-269.57 2058.55,-259.12 2050.66,-266.2 2056.8,-269.57"/>
</g>
<!-- mainGateLinearisationContributionWithV -->
<g id="node11" class="node">
<title>mainGateLinearisationContributionWithV</title>
<ellipse fill="none" stroke="black" cx="1266.2" cy="-372" rx="204.16" ry="18"/>
<text text-anchor="middle" x="1266.2" y="-368.3" font-family="Times,serif" font-size="14.00">mainGateLinearisationContributionWithV</text>
</g>
<!-- prepareQueries&#45;&gt;mainGateLinearisationContributionWithV -->
<g id="edge10" class="edge">
<title>prepareQueries&#45;&gt;mainGateLinearisationContributionWithV</title>
<path fill="none" stroke="black" d="M306.92,-305.57C336.43,-309.95 371.62,-314.76 403.47,-318 631.68,-341.21 894.98,-355.97 1069.87,-364.08"/>
<polygon fill="black" stroke="black" points="1069.8,-367.59 1079.95,-364.55 1070.12,-360.59 1069.8,-367.59"/>
</g>
<!-- addAssignRescueCustomGateLinearisationContributionWithV -->
<g id="node12" class="node">
<title>addAssignRescueCustomGateLinearisationContributionWithV</title>
<ellipse fill="none" stroke="black" cx="1266.2" cy="-318" rx="297.85" ry="18"/>
<text text-anchor="middle" x="1266.2" y="-314.3" font-family="Times,serif" font-size="14.00">addAssignRescueCustomGateLinearisationContributionWithV</text>
</g>
<!-- prepareQueries&#45;&gt;addAssignRescueCustomGateLinearisationContributionWithV -->
<g id="edge11" class="edge">
<title>prepareQueries&#45;&gt;addAssignRescueCustomGateLinearisationContributionWithV</title>
<path fill="none" stroke="black" d="M322.12,-297.04C348.12,-297.68 377,-298.38 403.47,-299 593.78,-303.43 807.74,-308.15 974.85,-311.78"/>
<polygon fill="black" stroke="black" points="975.21,-315.29 985.28,-312 975.36,-308.29 975.21,-315.29"/>
</g>
<!-- addAssignPermutationLinearisationContributionWithV -->
<g id="node13" class="node">
<title>addAssignPermutationLinearisationContributionWithV</title>
<ellipse fill="none" stroke="black" cx="668" cy="-272" rx="264.55" ry="18"/>
<text text-anchor="middle" x="668" y="-268.3" font-family="Times,serif" font-size="14.00">addAssignPermutationLinearisationContributionWithV</text>
</g>
<!-- prepareQueries&#45;&gt;addAssignPermutationLinearisationContributionWithV -->
<g id="edge12" class="edge">
<title>prepareQueries&#45;&gt;addAssignPermutationLinearisationContributionWithV</title>
<path fill="none" stroke="black" d="M320.67,-290.67C357.76,-288.67 403.81,-286.19 450.07,-283.7"/>
<polygon fill="black" stroke="black" points="450.46,-287.18 460.26,-283.15 450.09,-280.19 450.46,-287.18"/>
</g>
<!-- addAssignLookupLinearisationContributionWithV -->
<g id="node14" class="node">
<title>addAssignLookupLinearisationContributionWithV</title>
<ellipse fill="none" stroke="black" cx="668" cy="-218" rx="240.46" ry="18"/>
<text text-anchor="middle" x="668" y="-214.3" font-family="Times,serif" font-size="14.00">addAssignLookupLinearisationContributionWithV</text>
</g>
<!-- prepareQueries&#45;&gt;addAssignLookupLinearisationContributionWithV -->
<g id="edge13" class="edge">
<title>prepareQueries&#45;&gt;addAssignLookupLinearisationContributionWithV</title>
<path fill="none" stroke="black" d="M282.75,-279.52C315.32,-268.23 361.69,-253.46 403.47,-245 429.87,-239.65 457.97,-235.34 485.63,-231.87"/>
<polygon fill="black" stroke="black" points="486.29,-235.31 495.8,-230.63 485.45,-228.36 486.29,-235.31"/>
</g>
<!-- mainGateLinearisationContributionWithV&#45;&gt;pointMulAndAddIntoDest -->
<g id="edge15" class="edge">
<title>mainGateLinearisationContributionWithV&#45;&gt;pointMulAndAddIntoDest</title>
<path fill="none" stroke="black" d="M1328.68,-389.17C1445.5,-418.54 1705.59,-468.18 1904.04,-391 1968.07,-366.1 2022.28,-303.18 2049.31,-267.24"/>
<polygon fill="black" stroke="black" points="2052.16,-269.27 2055.28,-259.14 2046.53,-265.11 2052.16,-269.27"/>
</g>
<!-- pointMulIntoDest -->
<g id="node15" class="node">
<title>pointMulIntoDest</title>
<ellipse fill="none" stroke="black" cx="1751.96" cy="-272" rx="92.88" ry="18"/>
<text text-anchor="middle" x="1751.96" y="-268.3" font-family="Times,serif" font-size="14.00">pointMulIntoDest</text>
</g>
<!-- mainGateLinearisationContributionWithV&#45;&gt;pointMulIntoDest -->
<g id="edge14" class="edge">
<title>mainGateLinearisationContributionWithV&#45;&gt;pointMulIntoDest</title>
<path fill="none" stroke="black" d="M1447.74,-363.73C1486.39,-359.7 1526.74,-353.75 1563.87,-345 1614.65,-333.04 1669.98,-310.12 1707.2,-293.14"/>
<polygon fill="black" stroke="black" points="1709.11,-296.11 1716.73,-288.74 1706.18,-289.76 1709.11,-296.11"/>
</g>
<!-- pointAddAssign -->
<g id="node16" class="node">
<title>pointAddAssign</title>
<ellipse fill="none" stroke="black" cx="1751.96" cy="-364" rx="83.39" ry="18"/>
<text text-anchor="middle" x="1751.96" y="-360.3" font-family="Times,serif" font-size="14.00">pointAddAssign</text>
</g>
<!-- mainGateLinearisationContributionWithV&#45;&gt;pointAddAssign -->
<g id="edge16" class="edge">
<title>mainGateLinearisationContributionWithV&#45;&gt;pointAddAssign</title>
<path fill="none" stroke="black" d="M1467.1,-368.69C1533.57,-367.6 1604.39,-366.42 1658.67,-365.53"/>
<polygon fill="black" stroke="black" points="1659.01,-369.02 1668.95,-365.36 1658.9,-362.02 1659.01,-369.02"/>
</g>
<!-- addAssignRescueCustomGateLinearisationContributionWithV&#45;&gt;pointMulAndAddIntoDest -->
<g id="edge17" class="edge">
<title>addAssignRescueCustomGateLinearisationContributionWithV&#45;&gt;pointMulAndAddIntoDest</title>
<path fill="none" stroke="black" d="M1510.26,-328.34C1629.81,-328.97 1775.48,-323.08 1904.04,-299 1944.46,-291.43 1988.28,-275.46 2020.39,-262.19"/>
<polygon fill="black" stroke="black" points="2022.1,-265.27 2029.97,-258.18 2019.39,-258.82 2022.1,-265.27"/>
</g>
<!-- addAssignPermutationLinearisationContributionWithV&#45;&gt;pointMulIntoDest -->
<g id="edge18" class="edge">
<title>addAssignPermutationLinearisationContributionWithV&#45;&gt;pointMulIntoDest</title>
<path fill="none" stroke="black" d="M932.64,-272C1163.32,-272 1486.23,-272 1648.84,-272"/>
<polygon fill="black" stroke="black" points="1648.84,-275.5 1658.84,-272 1648.84,-268.5 1648.84,-275.5"/>
</g>
<!-- pointSubAssign -->
<g id="node17" class="node">
<title>pointSubAssign</title>
<ellipse fill="none" stroke="black" cx="1266.2" cy="-226" rx="83.39" ry="18"/>
<text text-anchor="middle" x="1266.2" y="-222.3" font-family="Times,serif" font-size="14.00">pointSubAssign</text>
</g>
<!-- addAssignPermutationLinearisationContributionWithV&#45;&gt;pointSubAssign -->
<g id="edge19" class="edge">
<title>addAssignPermutationLinearisationContributionWithV&#45;&gt;pointSubAssign</title>
<path fill="none" stroke="black" d="M843.85,-258.51C953.41,-250.06 1089.94,-239.52 1177.34,-232.78"/>
<polygon fill="black" stroke="black" points="1177.79,-236.25 1187.49,-232 1177.25,-229.28 1177.79,-236.25"/>
</g>
<!-- prepareAggregatedCommitment -->
<g id="node18" class="node">
<title>prepareAggregatedCommitment</title>
<ellipse fill="none" stroke="black" cx="1266.2" cy="-172" rx="161.67" ry="18"/>
<text text-anchor="middle" x="1266.2" y="-168.3" font-family="Times,serif" font-size="14.00">prepareAggregatedCommitment</text>
</g>
<!-- addAssignLookupLinearisationContributionWithV&#45;&gt;prepareAggregatedCommitment -->
<g id="edge20" class="edge">
<title>addAssignLookupLinearisationContributionWithV&#45;&gt;prepareAggregatedCommitment</title>
<path fill="none" stroke="black" d="M836.26,-205.09C926.38,-198.14 1036.41,-189.65 1122.46,-183.01"/>
<polygon fill="black" stroke="black" points="1122.87,-186.49 1132.57,-182.23 1122.33,-179.51 1122.87,-186.49"/>
</g>
<!-- prepareAggregatedCommitment&#45;&gt;pointMulIntoDest -->
<g id="edge23" class="edge">
<title>prepareAggregatedCommitment&#45;&gt;pointMulIntoDest</title>
<path fill="none" stroke="black" d="M1399.72,-161.82C1453.51,-163.18 1514.48,-172.1 1563.87,-199 1586.67,-211.42 1577.63,-231.61 1599.87,-245 1615.74,-254.55 1634.13,-260.91 1652.5,-265.1"/>
<polygon fill="black" stroke="black" points="1651.89,-268.54 1662.39,-267.15 1653.31,-261.69 1651.89,-268.54"/>
</g>
<!-- updateAggregationChallenge1 -->
<g id="node19" class="node">
<title>updateAggregationChallenge1</title>
<ellipse fill="none" stroke="black" cx="1751.96" cy="-110" rx="152.17" ry="18"/>
<text text-anchor="middle" x="1751.96" y="-106.3" font-family="Times,serif" font-size="14.00">updateAggregationChallenge1</text>
</g>
<!-- prepareAggregatedCommitment&#45;&gt;updateAggregationChallenge1 -->
<g id="edge21" class="edge">
<title>prepareAggregatedCommitment&#45;&gt;updateAggregationChallenge1</title>
<path fill="none" stroke="black" d="M1373.06,-158.43C1451.46,-148.38 1558.11,-134.72 1638.12,-124.46"/>
<polygon fill="black" stroke="black" points="1638.76,-127.91 1648.23,-123.17 1637.87,-120.97 1638.76,-127.91"/>
</g>
<!-- pointAddIntoDest -->
<g id="node20" class="node">
<title>pointAddIntoDest</title>
<ellipse fill="none" stroke="black" cx="1751.96" cy="-218" rx="92.88" ry="18"/>
<text text-anchor="middle" x="1751.96" y="-214.3" font-family="Times,serif" font-size="14.00">pointAddIntoDest</text>
</g>
<!-- prepareAggregatedCommitment&#45;&gt;pointAddIntoDest -->
<g id="edge22" class="edge">
<title>prepareAggregatedCommitment&#45;&gt;pointAddIntoDest</title>
<path fill="none" stroke="black" d="M1393.18,-183.17C1445.93,-187.93 1507.89,-193.61 1563.87,-199 1594.97,-201.99 1628.95,-205.4 1659.32,-208.5"/>
<polygon fill="black" stroke="black" points="1659.17,-212 1669.48,-209.54 1659.88,-205.04 1659.17,-212"/>
</g>
<!-- updateAggregationChallenge2 -->
<g id="node21" class="node">
<title>updateAggregationChallenge2</title>
<ellipse fill="none" stroke="black" cx="1751.96" cy="-164" rx="152.17" ry="18"/>
<text text-anchor="middle" x="1751.96" y="-160.3" font-family="Times,serif" font-size="14.00">updateAggregationChallenge2</text>
</g>
<!-- prepareAggregatedCommitment&#45;&gt;updateAggregationChallenge2 -->
<g id="edge24" class="edge">
<title>prepareAggregatedCommitment&#45;&gt;updateAggregationChallenge2</title>
<path fill="none" stroke="black" d="M1426.6,-169.36C1479.36,-168.49 1538.07,-167.52 1590.88,-166.65"/>
<polygon fill="black" stroke="black" points="1591.08,-170.14 1601.02,-166.48 1590.96,-163.15 1591.08,-170.14"/>
</g>
<!-- updateAggregationChallenge1&#45;&gt;pointMulAndAddIntoDest -->
<g id="edge25" class="edge">
<title>updateAggregationChallenge1&#45;&gt;pointMulAndAddIntoDest</title>
<path fill="none" stroke="black" d="M1856.84,-123.04C1872.93,-126.63 1889.15,-131.2 1904.04,-137 1954.73,-156.74 2006.64,-192.99 2038.03,-217.04"/>
<polygon fill="black" stroke="black" points="2035.9,-219.82 2045.94,-223.18 2040.19,-214.28 2035.9,-219.82"/>
</g>
<!-- updateAggregationChallenge2&#45;&gt;pointMulAndAddIntoDest -->
<g id="edge26" class="edge">
<title>updateAggregationChallenge2&#45;&gt;pointMulAndAddIntoDest</title>
<path fill="none" stroke="black" d="M1843.6,-178.38C1863.6,-182.06 1884.62,-186.31 1904.04,-191 1939.23,-199.49 1978,-211.22 2008.96,-221.18"/>
<polygon fill="black" stroke="black" points="2008.14,-224.6 2018.73,-224.35 2010.3,-217.94 2008.14,-224.6"/>
</g>
<!-- finalPairing -->
<g id="node22" class="node">
<title>finalPairing</title>
<ellipse fill="none" stroke="black" cx="668" cy="-95" rx="63.89" ry="18"/>
<text text-anchor="middle" x="668" y="-91.3" font-family="Times,serif" font-size="14.00">finalPairing</text>
</g>
<!-- finalPairing&#45;&gt;pointMulAndAddIntoDest -->
<g id="edge28" class="edge">
<title>finalPairing&#45;&gt;pointMulAndAddIntoDest</title>
<path fill="none" stroke="black" d="M730.91,-91.63C965.91,-79.21 1795,-38.96 1904.04,-83 1969.99,-109.63 2024.15,-176.97 2050.48,-214.57"/>
<polygon fill="black" stroke="black" points="2047.72,-216.74 2056.26,-223.01 2053.49,-212.78 2047.72,-216.74"/>
</g>
<!-- finalPairing&#45;&gt;pointSubAssign -->
<g id="edge27" class="edge">
<title>finalPairing&#45;&gt;pointSubAssign</title>
<path fill="none" stroke="black" d="M703.7,-110.17C758.7,-133.5 869.78,-177.7 968.52,-199 1036.27,-213.61 1114.38,-220.33 1173.44,-223.41"/>
<polygon fill="black" stroke="black" points="1173.33,-226.9 1183.49,-223.9 1173.68,-219.91 1173.33,-226.9"/>
</g>
<!-- pointNegate -->
<g id="node23" class="node">
<title>pointNegate</title>
<ellipse fill="none" stroke="black" cx="1266.2" cy="-18" rx="68.49" ry="18"/>
<text text-anchor="middle" x="1266.2" y="-14.3" font-family="Times,serif" font-size="14.00">pointNegate</text>
</g>
<!-- finalPairing&#45;&gt;pointNegate -->
<g id="edge29" class="edge">
<title>finalPairing&#45;&gt;pointNegate</title>
<path fill="none" stroke="black" d="M723.56,-86.1C783.52,-76.49 882.73,-61.07 968.52,-50 1044.41,-40.21 1131.49,-31.07 1191.59,-25.08"/>
<polygon fill="black" stroke="black" points="1192.13,-28.54 1201.74,-24.07 1191.44,-21.58 1192.13,-28.54"/>
</g>
<!-- verify -->
<g id="node24" class="node">
<title>verify</title>
<ellipse fill="none" stroke="black" cx="37.7" cy="-172" rx="37.89" ry="18"/>
<text text-anchor="middle" x="37.7" y="-168.3" font-family="Times,serif" font-size="14.00">verify</text>
</g>
<!-- verify&#45;&gt;initializeTranscript -->
<g id="edge32" class="edge">
<title>verify&#45;&gt;initializeTranscript</title>
<path fill="none" stroke="black" d="M46.55,-189.89C59.22,-218.37 85.41,-275.52 111.39,-322 147.04,-385.76 194.62,-457.19 220.24,-494.71"/>
<polygon fill="black" stroke="black" points="217.43,-496.79 225.97,-503.05 223.2,-492.83 217.43,-496.79"/>
</g>
<!-- verify&#45;&gt;verifyQuotientEvaluation -->
<g id="edge33" class="edge">
<title>verify&#45;&gt;verifyQuotientEvaluation</title>
<path fill="none" stroke="black" d="M38.36,-190.17C38.09,-246.89 43.1,-424.32 111.39,-548 133.4,-587.85 173.49,-622 202.77,-643.37"/>
<polygon fill="black" stroke="black" points="200.92,-646.35 211.09,-649.31 204.99,-640.65 200.92,-646.35"/>
</g>
<!-- verify&#45;&gt;prepareQueries -->
<g id="edge34" class="edge">
<title>verify&#45;&gt;prepareQueries</title>
<path fill="none" stroke="black" d="M61.61,-186.11C95.98,-207.27 161.19,-247.44 202.1,-272.62"/>
<polygon fill="black" stroke="black" points="200.34,-275.65 210.69,-277.91 204.01,-269.69 200.34,-275.65"/>
</g>
<!-- verify&#45;&gt;prepareAggregatedCommitment -->
<g id="edge35" class="edge">
<title>verify&#45;&gt;prepareAggregatedCommitment</title>
<path fill="none" stroke="black" d="M75.4,-172C226.03,-172 802.45,-172 1094.08,-172"/>
<polygon fill="black" stroke="black" points="1094.33,-175.5 1104.33,-172 1094.33,-168.5 1094.33,-175.5"/>
</g>
<!-- verify&#45;&gt;finalPairing -->
<g id="edge36" class="edge">
<title>verify&#45;&gt;finalPairing</title>
<path fill="none" stroke="black" d="M72.63,-164.9C84.82,-162.5 98.69,-159.94 111.39,-158 285.06,-131.47 490.85,-110.97 596.55,-101.23"/>
<polygon fill="black" stroke="black" points="597.14,-104.69 606.78,-100.29 596.5,-97.72 597.14,-104.69"/>
</g>
<!-- _loadVerificationKey -->
<g id="node25" class="node">
<title>_loadVerificationKey</title>
<ellipse fill="none" stroke="black" cx="239.43" cy="-88" rx="104.78" ry="18"/>
<text text-anchor="middle" x="239.43" y="-84.3" font-family="Times,serif" font-size="14.00">_loadVerificationKey</text>
</g>
<!-- verify&#45;&gt;_loadVerificationKey -->
<g id="edge30" class="edge">
<title>verify&#45;&gt;_loadVerificationKey</title>
<path fill="none" stroke="black" d="M56.62,-156.24C70.65,-144.67 91.12,-129.39 111.39,-120 125.61,-113.41 141.38,-108.05 156.84,-103.74"/>
<polygon fill="black" stroke="black" points="158.16,-107 166.93,-101.05 156.36,-100.24 158.16,-107"/>
</g>
<!-- loadProof -->
<g id="node26" class="node">
<title>loadProof</title>
<ellipse fill="none" stroke="black" cx="239.43" cy="-34" rx="55.49" ry="18"/>
<text text-anchor="middle" x="239.43" y="-30.3" font-family="Times,serif" font-size="14.00">loadProof</text>
</g>
<!-- verify&#45;&gt;loadProof -->
<g id="edge31" class="edge">
<title>verify&#45;&gt;loadProof</title>
<path fill="none" stroke="black" d="M45.24,-154.24C55.38,-129.28 77.37,-84.29 111.39,-61 129.79,-48.41 152.91,-41.52 174.38,-37.8"/>
<polygon fill="black" stroke="black" points="175.07,-41.24 184.43,-36.26 174.01,-34.32 175.07,-41.24"/>
</g>
</g>
</svg>
